<svg xmlns="http://www.w3.org/2000/svg" id="svg5" width="32" height="32" version="1.1" viewBox="0 0 8.4667 8.4667"><defs id="defs2"><style id="style9">.cls-1{fill:none;stroke:#000;stroke-miterlimit:10;stroke-width:12px}</style></defs><g id="layer1"><g id="g44" transform="matrix(.017 0 0 .0168 -3.3407 -2.2734)"><path id="path13" d="M517 480.33a115.08 115.08 0 01-132.9 1.22l66.22-151.39z" class="cls-1" style="stroke:orange;stroke-opacity:1"/><path id="path15" d="M517 480.33a115.08 115.08 0 01-132.9 1.22l66.22-151.39z" class="cls-1" style="stroke:orange;stroke-opacity:1"/><path id="path17" d="M573.8 520.15a182 182 0 01-29.24 22.22l-27.56-62-66.68-150.21-66.22 151.39-27.17 62.1a182.65 182.65 0 01-29.55-21.83l29.32-67 79.65-182.12L450 241.43l14 31.38L544 453z" class="cls-1" style="stroke:orange;stroke-opacity:1"/><path id="path19" d="M449.69 502.07a114.48 114.48 0 01-65.59-20.52l66.22-151.39L517 480.33a114.5 114.5 0 01-67.31 21.74z" class="cls-1" style="stroke:orange;stroke-opacity:1"/><path id="path21" d="M597.51 573.54a237.76 237.76 0 01-293.5 1.7l23.37-53.42a182.65 182.65 0 0029.55 21.83l27.17-62.1a115.08 115.08 0 00132.9-1.22l27.56 62a182 182 0 0029.24-22.22z" class="cls-1" style="stroke:orange;stroke-opacity:1"/><path id="path23" d="M449.69 502.07a114.48 114.48 0 01-65.59-20.52l66.22-151.39L517 480.33a114.5 114.5 0 01-67.31 21.74z" class="cls-1" style="stroke:orange;stroke-opacity:1"/><path id="path25" d="M267.66 387a182 182 0 01335.41-98.07h63.54A238 238 0 00449.69 149c-131.45 0-238 106.56-238 238A237.64 237.64 0 00304 575.24l23.37-53.42A181.58 181.58 0 01267.66 387z" class="cls-1" style="stroke:orange;stroke-opacity:1"/><path id="path27" d="M384.1 481.55a115.08 115.08 0 00132.9-1.22l-66.68-150.17z" class="cls-1" style="stroke:orange;stroke-opacity:1"/><path id="path29" d="M622 445.93a182.11 182.11 0 01-48.16 74.22l23.71 53.39a238.07 238.07 0 0082.81-127.61z" class="cls-1" style="stroke:orange;stroke-opacity:1"/></g></g></svg>