<svg width="32" height="32" viewBox="0 0 8.467 8.467" version="1.1" id="svg5" xmlns="http://www.w3.org/2000/svg"><defs id="defs2"><style id="style9">.cls-1{fill:none;stroke:#000;stroke-miterlimit:10;stroke-width:12px}</style></defs><g id="layer1"><g id="g44" transform="matrix(.017 0 0 .0168 -3.34 -2.273)" fill="none"><path class="cls-1" d="M517 480.33a115.08 115.08 0 01-132.9 1.22l66.22-151.39z" id="path13" fill="none"/><path class="cls-1" d="M517 480.33a115.08 115.08 0 01-132.9 1.22l66.22-151.39z" id="path15" fill="none"/><path class="cls-1" d="M573.8 520.15a182 182 0 01-29.24 22.22l-27.56-62-66.68-150.21-66.22 151.39-27.17 62.1a182.65 182.65 0 01-29.55-21.83l29.32-67 79.65-182.12L450 241.43l14 31.38L544 453z" id="path17" fill="none" stroke="#fff" stroke-opacity="1"/><path class="cls-1" d="M449.69 502.07a114.48 114.48 0 01-65.59-20.52l66.22-151.39L517 480.33a114.5 114.5 0 01-67.31 21.74z" id="path19" fill="none"/><path class="cls-1" d="M597.51 573.54a237.76 237.76 0 01-293.5 1.7l23.37-53.42a182.65 182.65 0 0029.55 21.83l27.17-62.1a115.08 115.08 0 00132.9-1.22l27.56 62a182 182 0 0029.24-22.22z" id="path21" fill="none" stroke="#fefefe" stroke-opacity="1"/><path class="cls-1" d="M449.69 502.07a114.48 114.48 0 01-65.59-20.52l66.22-151.39L517 480.33a114.5 114.5 0 01-67.31 21.74z" id="path23" fill="none"/><path class="cls-1" d="M267.66 387a182 182 0 01335.41-98.07h63.54A238 238 0 00449.69 149c-131.45 0-238 106.56-238 238A237.64 237.64 0 00304 575.24l23.37-53.42A181.58 181.58 0 01267.66 387z" id="path25" fill="none" stroke="#fafafa" stroke-opacity="1"/><path class="cls-1" d="M384.1 481.55a115.08 115.08 0 00132.9-1.22l-66.68-150.17z" id="path27" fill="none" stroke="#ebebeb" stroke-opacity="1"/><path class="cls-1" d="M622 445.93a182.11 182.11 0 01-48.16 74.22l23.71 53.39a238.07 238.07 0 0082.81-127.61z" id="path29" fill="none" stroke="#fff" stroke-opacity="1"/></g></g></svg>