<svg id="Layer_1" data-name="Layer 1" viewBox="0 0 2469.23 844.1" version="1.1" xmlns="http://www.w3.org/2000/svg"><defs id="defs11"><style id="style9">.cls-1{fill:none;stroke:#000;stroke-miterlimit:10;stroke-width:12px}</style></defs><path class="cls-1" d="M483.23 565.934a174.099 171.867 0 01-201.118 1.822l100.18-226.093z" id="path13"/><path class="cls-1" d="M483.23 565.934a174.099 171.867 0 01-201.118 1.822l100.18-226.093z" id="path15"/><path class="cls-1" d="M569.16 625.404a275.339 271.808 0 01-44.236 33.184l-41.694-92.594-100.877-224.331-100.241 226.093-41.104 92.744a276.322 272.78 0 01-44.705-32.602l44.357-100.062 120.498-271.928 20.802-46.76 21.074 46.865 121.028 269.075z" id="path17"/><path class="cls-1" d="M381.4 598.402a173.191 170.97 0 01-99.288-30.646l100.18-226.093L483.17 565.934a173.221 171 0 01-101.77 32.468z" id="path19"/><path class="cls-1" d="M605.03 705.14a359.695 355.083 0 01-444.022 2.538l35.355-79.78a276.322 272.78 0 0044.705 32.602l41.044-92.744a174.099 171.867 0 00201.058-1.822l41.694 92.594a275.339 271.808 0 0044.236-33.184z" id="path21"/><path class="cls-1" d="M381.4 598.402a173.191 170.97 0 01-99.288-30.646l100.18-226.093L483.17 565.934a173.221 171 0 01-101.77 32.468z" id="path23"/><path class="cls-1" d="M106.016 426.55a275.339 271.808 0 01507.41-146.433h96.127C653.033 156.833 527.36 71.034 381.4 71.034c-198.864 0-360.058 159.142-360.058 355.442a359.514 354.904 0 00139.742 281.202l35.355-79.78a274.703 271.181 0 01-90.423-201.348z" id="path25"/><path class="cls-1" d="M282.112 567.756a174.099 171.867 0 00201.058-1.822L382.353 341.663z" id="path27"/><path class="cls-1" d="M642.019 514.59a275.505 271.973 0 01-72.859 110.844l35.87 79.735a360.225 355.606 0 00125.264-190.58z" id="path29"/><path d="M1015.818 351.336l-18.498-41.294h-86.465l-18.262 41.294h-16.495l70.192-155.21h16.052l70.191 155.21zm-98.94-55.058h74.433l-37.437-83.965z" id="path31" stroke-width="1.379"/><path d="M1080.442 196.126h15.376v141.446h68.63v13.764h-84.006z" id="path33" stroke-width="1.379"/><path d="M1217.04 196.126h104.299v13.764h-88.924v55.513h79.558v13.765h-79.558v58.404h91.811v13.764H1217.04z" id="path35" stroke-width="1.379"/><path d="M1369.013 196.126h18.056l44.786 62.657 44.8-62.616h18.042l-53.255 74.605 57.717 80.605h-18.553l-48.806-67.942-48.793 67.942h-18.056l57.552-80.206z" id="path37" stroke-width="1.379"/><path d="M1669.409 351.336l-18.497-41.294h-86.465l-18.277 41.294h-16.48l70.19-155.21h16.108l70.206 155.21zm-98.94-55.058h74.433l-37.451-83.965z" id="path39" stroke-width="1.379"/><path d="M1847.008 196.126h15.196v155.21h-16.26l-96.494-131.452v131.452h-15.375v-155.21h16.26l96.7 131.452z" id="path41" stroke-width="1.379"/><path d="M2036.985 206.34a77.237 76.958 0 01-.11 134.783 83.274 82.973 0 01-41.002 10.213h-62.166v-155.21h62.622a82.196 81.9 0 0140.656 10.213zm-7.943 122.794a64.1 63.868 0 00-.332-110.806 64.735 64.501 0 00-32.644-8.438h-46.969v127.682h47.688a63.699 63.469 0 0032.257-8.438z" id="path43" stroke-width="1.379"/><path d="M2235.43 351.336l-33.707-50.626c-4.766.303-8.4.44-10.928.44h-42.824v50.186h-15.32v-155.21h58.158q29.19 0 45.132 13.434 15.942 13.434 15.929 38.087 0 19.27-9.353 32.196-9.352 12.925-26.745 17.976l37.438 53.517zm-44.58-63.95q22.297 0 34.33-10.104 12.032-10.103 12.032-29.195 0-18.664-12.032-28.424-12.033-9.759-34.33-9.773h-42.824v77.496z" id="path45" stroke-width="1.379"/><path d="M2340.945 325.582q13.027 13.325 36.208 13.31 23.18-.013 36.097-13.31 12.93-13.337 12.93-37.302v-92.374h15.376v92.374q0 30.186-17.047 47.282-17.047 17.096-47.342 17.096-30.31 0-47.467-17.096t-17.157-47.282v-92.374h15.375v92.374q-.013 23.978 13.027 37.302z" id="path47" stroke-width="1.379"/><path d="M991.09 479.898a65.619 65.382 0 00-82.403 27.2 65.564 65.327 0 000 65.381 65.674 65.437 0 0023.843 23.648 64.334 64.102 0 0033.155 8.768 65.992 65.754 0 0025.184-4.997 71.31 71.053 0 0021.827-13.874l9.366 9.993a89.794 89.47 0 01-26.524 16.875 78.494 78.21 0 01-30.53 6.222 80.621 80.33 0 01-69.86-39.532 76.836 76.56 0 01-10.803-39.739 75.165 74.894 0 0110.914-39.518 81.575 81.28 0 0170.205-39.078 82.887 82.588 0 0156.377 22.202l-9.145 10.654a68.257 68.011 0 00-21.606-14.205z" id="path49" stroke-width="1.379"/><path d="M1102.835 592.025q13.027 13.31 36.222 13.324 23.194.014 36.097-13.324 12.903-13.324 12.917-37.302v-92.375h15.375v92.375q0 30.186-17.047 47.295-17.047 17.11-47.342 17.096-30.31 0-47.467-17.096-17.157-17.095-17.13-47.295v-92.375h15.39v92.375q-.041 23.978 12.985 37.302z" id="path51" stroke-width="1.379"/><path d="M1373.93 617.779l-33.651-50.668c-4.753.303-8.4.44-10.927.44h-42.826v50.186h-15.375V462.568h58.159q29.19 0 45.132 13.435 15.942 13.434 15.928 38.087 0 19.27-9.352 32.195-9.353 12.925-26.745 17.977l37.437 53.517zm-44.578-63.95q22.296 0 34.328-10.104 12.033-10.103 12.033-29.195 0-18.651-12.033-28.424-12.032-9.773-34.329-9.773h-42.825v77.495z" id="path53" stroke-width="1.379"/><path d="M1546.184 479.898a65.619 65.382 0 00-82.348 27.2 65.564 65.327 0 000 65.381 65.674 65.437 0 0023.843 23.648 64.334 64.102 0 0033.155 8.768 65.992 65.754 0 0025.184-4.997 71.545 71.287 0 0021.84-13.874l9.353 9.993a89.794 89.47 0 01-26.524 16.875 78.494 78.21 0 01-30.53 6.222 80.663 80.372 0 01-69.942-39.532 76.96 76.683 0 01-10.803-39.739 75.165 74.894 0 0110.913-39.518 81.575 81.28 0 0170.205-39.078 82.887 82.588 0 0156.377 22.202l-9.131 10.654a68.478 68.231 0 00-21.592-14.205z" id="path55" stroke-width="1.379"/><path d="M1657.93 592.025q13.04 13.31 36.22 13.324 23.181.014 36.098-13.324 12.917-13.324 12.917-37.302v-92.375h15.389v92.375q0 30.186-17.061 47.295-17.06 17.11-47.342 17.096-30.31 0-47.467-17.096-17.157-17.095-17.157-47.295v-92.375h15.375v92.375q0 23.978 13.027 37.302z" id="path57" stroke-width="1.379"/><path d="M1928.196 472.672q13.262 10.323 13.262 28.534 0 13.765-7.681 23.097-7.68 9.332-21.51 12.21 17.158 2.23 26.746 12.663 9.587 10.433 9.573 26.414 0 19.986-14.92 31.08-14.92 11.095-41.443 11.109h-65.964v-155.43h65.3q23.43 0 36.637 10.323zm-11.701 51.067q9.145-7.213 9.145-20.537 0-12.87-9.145-19.973-9.145-7.102-25.626-6.882h-49.248v54.632h49.276q16.577-.014 25.64-7.24zm5.526 72.388q11.051-7.873 11.051-22.092a25.184 25.093 0 00-11.134-21.762q-11.148-7.764-30.986-7.764h-49.249v59.505h49.194q20.072 0 31.11-7.887z" id="path59" stroke-width="1.379"/><path d="M2125.122 617.779l-18.498-41.294h-86.465l-18.277 41.294h-16.48l70.191-155.21h16.053l70.191 155.21zm-98.94-55.059h74.433l-37.438-83.964zm25.957-130.503a16.15 16.09 0 0022.96 0 18.387 18.32 0 005.015-11.879h10.913a27.242 27.144 0 01-8.026 19.656 26.51 26.414 0 01-19.34 7.667 26.248 26.153 0 01-19.16-7.667 27.988 27.887 0 01-8.29-19.656h10.914a18.387 18.32 0 005.014 11.88z" id="path61" stroke-width="1.379"/><path d="M2153.206 462.348h118.321v13.985h-51.472V617.78h-15.376V476.333h-51.473z" id="path63" stroke-width="1.379"/></svg>